<svg xmlns="http://www.w3.org/2000/svg" viewBox="0 0 960 404" width="960" height="404"
     font-family="ui-monospace,'SF Mono',SFMono-Regular,Menlo,Consolas,'DejaVu Sans Mono',monospace" role="img" aria-label="Arsenal: tools and languages" xmlns:c2pa="http://c2pa.org/manifest"><metadata><c2pa:manifest>AAAWgmp1bWIAAAAeanVtZGMycGEAEQAQgAAAqgA4m3EDYzJwYQAAABZcanVtYgAAAEdqdW1kYzJtYQARABCAAACqADibcQN1cm46YzJwYTpmY2M2ZGRlMS1kMTM4LTRkZWQtOWU0OS1jMzE1NDM1YzQ0OTAAAAADl2p1bWIAAAApanVtZGMyYXMAEQAQgAAAqgA4m3EDYzJwYS5hc3NlcnRpb25zAAAAALxqdW1iAAAARGp1bWRjYm9yABEAEIAAAKoAOJtxE2MycGEuaW5ncmVkaWVudC52MwAAAAAYYzJzaOpfYfXYGDMlNAhdJIqNk+gAAABwY2JvcqNpZGM6Zm9ybWF0bWltYWdlL3N2Zyt4bWxqaW5zdGFuY2VJRHgseG1wOmlpZDo3MDg4Y2EwOC1lYjZiLTQyZDktODhkOC00ZTU2ZjQzYzdjNzZscmVsYXRpb25zaGlwaHBhcmVudE9mAAAB4mp1bWIAAABBanVtZGNib3IAEQAQgAAAqgA4m3ETYzJwYS5hY3Rpb25zLnYyAAAAABhjMnNo4P7dE7dPSuXwaUhCygPYTQAAAZljYm9yomdhY3Rpb25zgqJmYWN0aW9ua2MycGEub3BlbmVkanBhcmFtZXRlcnOha2luZ3JlZGllbnRzgaJjdXJseC1zZWxmI2p1bWJmPWMycGEuYXNzZXJ0aW9ucy9jMnBhLmluZ3JlZGllbnQudjNkaGFzaFggfeminaOSBpoYvxXRZEEXzR8TsSP2onST26buPnPmkf6kZmFjdGlvbngdY29tLmFudGhyb3BpYy5jbGF1ZGUucHJvdmlkZWRqcGFyYW1ldGVyc6F4H2NvbS5hbnRocm9waWMub3JpZ2luLWNvbmZpZGVuY2VndW5rbm93bmtkZXNjcmlwdGlvbnhmQ2xhdWRlIHByb3ZpZGVkIHRoaXMgZmlsZSBhdCB0aGUgcmVxdWVzdCBvZiBhIHVzZXIgYW5kIG1heSBoYXZlIGNyZWF0ZWQgb3IgbW9kaWZpZWQgdGhlIGZpbGUgY29udGVudHMubXNvZnR3YXJlQWdlbnShZG5hbWVmQ2xhdWRlcmFsbEFjdGlvbnNJbmNsdWRlZPUAAADIanVtYgAAAEBqdW1kY2JvcgARABCAAACqADibcRNjMnBhLmhhc2guZGF0YQAAAAAYYzJzaMi+SArA2OLOnhzhJZnK7/oAAACAY2JvcqVjYWxnZnNoYTI1NmNwYWRMAAAAAAAAAAAAAAAAZGhhc2hYIN+15Cni9UY7RTxjGDXVyX/t4QPBXTUAPyZxspM+UJynZG5hbWVuanVtYmYgbWFuaWZlc3RqZXhjbHVzaW9uc4GiZXN0YXJ0GQEwZmxlbmd0aBkeBAAAAj5qdW1iAAAAJ2p1bWRjMmNsABEAEIAAAKoAOJtxA2MycGEuY2xhaW0udjIAAAACD2Nib3KlY2FsZ2ZzaGEyNTZpc2lnbmF0dXJleE1zZWxmI2p1bWJmPS9jMnBhL3VybjpjMnBhOmZjYzZkZGUxLWQxMzgtNGRlZC05ZTQ5LWMzMTU0MzVjNDQ5MC9jMnBhLnNpZ25hdHVyZWppbnN0YW5jZUlEeCx4bXA6aWlkOmE3YThhNmUzLTE4MTQtNGMwNC04YmUwLTkwYzdmYjVkMjM4MHJjcmVhdGVkX2Fzc2VydGlvbnODomN1cmx4LXNlbGYjanVtYmY9YzJwYS5hc3NlcnRpb25zL2MycGEuaW5ncmVkaWVudC52M2RoYXNoWCB96aKdo5IGmhi/FdFkQRfNHxOxI/aidJPbpu4+c+aR/qJjdXJseCpzZWxmI2p1bWJmPWMycGEuYXNzZXJ0aW9ucy9jMnBhLmFjdGlvbnMudjJkaGFzaFggzrOKgka+skBYRjHb6QwQv+b+tsYcwHPJwAHqJqu+ZCiiY3VybHgpc2VsZiNqdW1iZj1jMnBhLmFzc2VydGlvbnMvYzJwYS5oYXNoLmRhdGFkaGFzaFggmQO36H1TozAuYoPA7NgzPqgEa3dVP8mRVnEKsPTZPlh0Y2xhaW1fZ2VuZXJhdG9yX2luZm+jZG5hbWVvQW50aHJvcGljIEZpbGVzZ3ZlcnNpb25lMS4wLjBrc3BlY1ZlcnNpb25lMi40LjAAABA4anVtYgAAAChqdW1kYzJjcwARABCAAACqADibcQNjMnBhLnNpZ25hdHVyZQAAABAIY2JvctKEWQISogEmGCFZAgowggIGMIIBjaADAgECAhRA5aAK7sI50L64g/oGQgU9Z1UTADAKBggqhkjOPQQDAzBJMRcwFQYDVQQKEw5BbnRocm9waWMsIFBCQzEuMCwGA1UEAxMlQW50aHJvcGljIENvbnRlbnQgQ3JlZGVudGlhbHMgUm9vdCBDQTAeFw0yNjA4MDcxODQzNTZaFw0yODA4MDYxOTQzNTZaMEQxFzAVBgNVBAoTDkFudGhyb3BpYywgUEJDMSkwJwYDVQQDEyBBbnRocm9waWMgQ2xhdWRlIENvbnRlbnQgU2lnbmluZzBZMBMGByqGSM49AgEGCCqGSM49AwEHA0IABJh6CmvLUBgFFNU0vUKlOVtE6djd17L5SuwX0LemFisBM3dkd/3cyjxFA3Qo5S46fX0/ihY0VZ7mfb9KF703t5OjWDBWMA4GA1UdDwEB/wQEAwIHgDAVBgNVHSUEDjAMBgorBgEEAYPoXgIBMAwGA1UdEwEB/wQCMAAwHwYDVR0jBBgwFoAUzlHiBIFOZFsj+OPEz5o+nMHXXMIwCgYIKoZIzj0EAwMDZwAwZAIwMXMdFJ4BetLLVY7ORuE9noqbbAZOZn/aArXyTwFAZfKrPzxF2vPoJNf1+UCdg1XGAjBwX1zd9WGqYkqmL5SFqw1QySjr1zJfpJM9+1rdDwSPLMOPOjKuiXjoU/pUUeG9RwmhY3BhZFkNngAAAAAAAAAAAAAAAAAAAAAAAAAAAAAAAAAAAAAAAAAAAAAAAAAAAAAAAAAAAAAAAAAAAAAAAAAAAAAAAAAAAAAAAAAAAAAAAAAAAAAAAAAAAAAAAAAAAAAAAAAAAAAAAAAAAAAAAAAAAAAAAAAAAAAAAAAAAAAAAAAAAAAAAAAAAAAAAAAAAAAAAAAAAAAAAAAAAAAAAAAAAAAAAAAAAAAAAAAAAAAAAAAAAAAAAAAAAAAAAAAAAAAAAAAAAAAAAAAAAAAAAAAAAAAAAAAAAAAAAAAAAAAAAAAAAAAAAAAAAAAAAAAAAAAAAAAAAAAAAAAAAAAAAAAAAAAAAAAAAAAAAAAAAAAAAAAAAAAAAAAAAAAAAAAAAAAAAAAAAAAAAAAAAAAAAAAAAAAAAAAAAAAAAAAAAAAAAAAAAAAAAAAAAAAAAAAAAAAAAAAAAAAAAAAAAAAAAAAAAAAAAAAAAAAAAAAAAAAAAAAAAAAAAAAAAAAAAAAAAAAAAAAAAAAAAAAAAAAAAAAAAAAAAAAAAAAAAAAAAAAAAAAAAAAAAAAAAAAAAAAAAAAAAAAAAAAAAAAAAAAAAAAAAAAAAAAAAAAAAAAAAAAAAAAAAAAAAAAAAAAAAAAAAAAAAAAAAAAAAAAAAAAAAAAAAAAAAAAAAAAAAAAAAAAAAAAAAAAAAAAAAAAAAAAAAAAAAAAAAAAAAAAAAAAAAAAAAAAAAAAAAAAAAAAAAAAAAAAAAAAAAAAAAAAAAAAAAAAAAAAAAAAAAAAAAAAAAAAAAAAAAAAAAAAAAAAAAAAAAAAAAAAAAAAAAAAAAAAAAAAAAAAAAAAAAAAAAAAAAAAAAAAAAAAAAAAAAAAAAAAAAAAAAAAAAAAAAAAAAAAAAAAAAAAAAAAAAAAAAAAAAAAAAAAAAAAAAAAAAAAAAAAAAAAAAAAAAAAAAAAAAAAAAAAAAAAAAAAAAAAAAAAAAAAAAAAAAAAAAAAAAAAAAAAAAAAAAAAAAAAAAAAAAAAAAAAAAAAAAAAAAAAAAAAAAAAAAAAAAAAAAAAAAAAAAAAAAAAAAAAAAAAAAAAAAAAAAAAAAAAAAAAAAAAAAAAAAAAAAAAAAAAAAAAAAAAAAAAAAAAAAAAAAAAAAAAAAAAAAAAAAAAAAAAAAAAAAAAAAAAAAAAAAAAAAAAAAAAAAAAAAAAAAAAAAAAAAAAAAAAAAAAAAAAAAAAAAAAAAAAAAAAAAAAAAAAAAAAAAAAAAAAAAAAAAAAAAAAAAAAAAAAAAAAAAAAAAAAAAAAAAAAAAAAAAAAAAAAAAAAAAAAAAAAAAAAAAAAAAAAAAAAAAAAAAAAAAAAAAAAAAAAAAAAAAAAAAAAAAAAAAAAAAAAAAAAAAAAAAAAAAAAAAAAAAAAAAAAAAAAAAAAAAAAAAAAAAAAAAAAAAAAAAAAAAAAAAAAAAAAAAAAAAAAAAAAAAAAAAAAAAAAAAAAAAAAAAAAAAAAAAAAAAAAAAAAAAAAAAAAAAAAAAAAAAAAAAAAAAAAAAAAAAAAAAAAAAAAAAAAAAAAAAAAAAAAAAAAAAAAAAAAAAAAAAAAAAAAAAAAAAAAAAAAAAAAAAAAAAAAAAAAAAAAAAAAAAAAAAAAAAAAAAAAAAAAAAAAAAAAAAAAAAAAAAAAAAAAAAAAAAAAAAAAAAAAAAAAAAAAAAAAAAAAAAAAAAAAAAAAAAAAAAAAAAAAAAAAAAAAAAAAAAAAAAAAAAAAAAAAAAAAAAAAAAAAAAAAAAAAAAAAAAAAAAAAAAAAAAAAAAAAAAAAAAAAAAAAAAAAAAAAAAAAAAAAAAAAAAAAAAAAAAAAAAAAAAAAAAAAAAAAAAAAAAAAAAAAAAAAAAAAAAAAAAAAAAAAAAAAAAAAAAAAAAAAAAAAAAAAAAAAAAAAAAAAAAAAAAAAAAAAAAAAAAAAAAAAAAAAAAAAAAAAAAAAAAAAAAAAAAAAAAAAAAAAAAAAAAAAAAAAAAAAAAAAAAAAAAAAAAAAAAAAAAAAAAAAAAAAAAAAAAAAAAAAAAAAAAAAAAAAAAAAAAAAAAAAAAAAAAAAAAAAAAAAAAAAAAAAAAAAAAAAAAAAAAAAAAAAAAAAAAAAAAAAAAAAAAAAAAAAAAAAAAAAAAAAAAAAAAAAAAAAAAAAAAAAAAAAAAAAAAAAAAAAAAAAAAAAAAAAAAAAAAAAAAAAAAAAAAAAAAAAAAAAAAAAAAAAAAAAAAAAAAAAAAAAAAAAAAAAAAAAAAAAAAAAAAAAAAAAAAAAAAAAAAAAAAAAAAAAAAAAAAAAAAAAAAAAAAAAAAAAAAAAAAAAAAAAAAAAAAAAAAAAAAAAAAAAAAAAAAAAAAAAAAAAAAAAAAAAAAAAAAAAAAAAAAAAAAAAAAAAAAAAAAAAAAAAAAAAAAAAAAAAAAAAAAAAAAAAAAAAAAAAAAAAAAAAAAAAAAAAAAAAAAAAAAAAAAAAAAAAAAAAAAAAAAAAAAAAAAAAAAAAAAAAAAAAAAAAAAAAAAAAAAAAAAAAAAAAAAAAAAAAAAAAAAAAAAAAAAAAAAAAAAAAAAAAAAAAAAAAAAAAAAAAAAAAAAAAAAAAAAAAAAAAAAAAAAAAAAAAAAAAAAAAAAAAAAAAAAAAAAAAAAAAAAAAAAAAAAAAAAAAAAAAAAAAAAAAAAAAAAAAAAAAAAAAAAAAAAAAAAAAAAAAAAAAAAAAAAAAAAAAAAAAAAAAAAAAAAAAAAAAAAAAAAAAAAAAAAAAAAAAAAAAAAAAAAAAAAAAAAAAAAAAAAAAAAAAAAAAAAAAAAAAAAAAAAAAAAAAAAAAAAAAAAAAAAAAAAAAAAAAAAAAAAAAAAAAAAAAAAAAAAAAAAAAAAAAAAAAAAAAAAAAAAAAAAAAAAAAAAAAAAAAAAAAAAAAAAAAAAAAAAAAAAAAAAAAAAAAAAAAAAAAAAAAAAAAAAAAAAAAAAAAAAAAAAAAAAAAAAAAAAAAAAAAAAAAAAAAAAAAAAAAAAAAAAAAAAAAAAAAAAAAAAAAAAAAAAAAAAAAAAAAAAAAAAAAAAAAAAAAAAAAAAAAAAAAAAAAAAAAAAAAAAAAAAAAAAAAAAAAAAAAAAAAAAAAAAAAAAAAAAAAAAAAAAAAAAAAAAAAAAAAAAAAAAAAAAAAAAAAAAAAAAAAAAAAAAAAAAAAAAAAAAAAAAAAAAAAAAAAAAAAAAAAAAAAAAAAAAAAAAAAAAAAAAAAAAAAAAAAAAAAAAAAAAAAAAAAAAAAAAAAAAAAAAAAAAAAAAAAAAAAAAAAAAAAAAAAAAAAAAAAAAAAAAAAAAAAAAAAAAAAAAAAAAAAAAAAAAAAAAAAAAAAAAAAAAAAAAAAAAAAAAAAAAAAAAAAAAAAAAAAAAAAAAAAAAAAAAAAAAAAAAAAAAAAAAAAAAAAAAAAAAAAAAAAAAAAAAAAAAAAAAAAAAAAAAAAAAAAAAAAAAAAAAAAAAAAAAAAAAAAAAAAAAAAAAAAAAAAAAAAAAAAAAAAAAAAAAAAAAAAAAAAAAAAAAAAAAAAAAAAAAAAAAAAAAAAAAAAAAAAAAAAAAAAAAAAAAAAAAAAAAAAAAAAAAAAAAAAAAAAAAAAAAAAAAAAAAAAAAAAAAAAAAAAAAAAAAAAAAAAAAAAAAAAAAAAAAAAAAAAAAAAAAAAAAAAAAAAAAAAAAAAAAAAAAAAAAAAAAAAAAAAAAAAAAAAAAAAAAAAAAAAAAAAAAAAAAAAAAAAAAAAAAAAAAAAAAAAAAAAAAAAAAAAAAAAAAAAAAAAAAAAAAAAAAAAAAAAAAAAAAAAAAAAAAAAAAAAAAAAAAAAAAAAAAAAAAAAAAAAAAAAAAAAAAAAAAAAAAAAAAAAAAAAAAAAAAAAAAAAAAAAAAAAAAAAAAAAAAAAAAAAAAAAAAAAAAAAAAAAAAAAAAAAAAAAAAAAAAAAAAAAAAAAAAAAAAAAAAAAAAAAAAAAAAAAAAAAAAAAAAAAAAAAAAAAAAAAAAAAAAAAAAAAAAAAAAAAAAAAAAAAAAAAAAAAAAAAAAAAAAAAAAAAAAAAAAAAAAAAAAAAAAAAAAAAAAAAAAAAAAAAAAAAAAAAAAAAAAAAAAAAAAAAAAAAAAAAAAAAAAAAAAAAAAAAAAAAAAAAAAAAAAAAAAAAAAAAAAAAAAAAAAAAAAAAAAAAAAAAAAAAAAAAAAAAAAAAAAAAAAAAAAAAAAAAAAAAAAAAAAAAAAAAAAAAAAAAAAAAAAAAAAAAAAAAAAAAAAAAAAAAAAAAAAAAAAAAAAAAAAAAAAAAAAAAAAAAAAAAAAAAAAAAAAAAAAAAAAAAAAAAAAAAAAAAAAAAAAAAAAAAAAAAAAAAAAAAAAAAAAAAAAAAAAAAAAAAAAAAAAAAAAAAAAAAAAAAAAAAAAAAAAAAAAAAAAAAAAAAAAAAAAAAAAAAAAAAAAAAAAAAAAAAAAAAAAAAAAAAAAAAAAAAAAAAAAAAAAAAAAAAAAAAAAAAAAAAAAAAAAAAAAAAAAAAAAAAAAAAAAAAAAAAAAAAAAAAAAAAAAAAAAAAAAAAAAAAAAAAAAAAAAAAAAAAAAAAAAAAAAAAAAAAAAAAAAAAAAAAAAAAAAAAAAAAAAAAAAAAAAAAAAAAAAAAAAAAAAAAAAAAAAAAAAPZYQMPFnyRJWnt+vEUoUn8uhIg7NmIFBA8IuXZrDy2oas4DwiTm4WC34j4v5JWaul2plUdDi5EuGDZ5nbvjp61Li+A=</c2pa:manifest></metadata>
<defs>
  <linearGradient id="abg" x1="0" y1="0" x2="1" y2="1">
    <stop offset="0" stop-color="#070C15"/><stop offset="1" stop-color="#0A0713"/></linearGradient>
  <linearGradient id="abar" x1="0" y1="0" x2="1" y2="0">
    <stop offset="0" stop-color="#00E5FF"/><stop offset="0.5" stop-color="#00FF9C"/>
    <stop offset="1" stop-color="#FF2EC4"/></linearGradient>
  <linearGradient id="ascan" x1="0" y1="0" x2="1" y2="0">
    <stop offset="0" stop-color="#00E5FF" stop-opacity="0"/>
    <stop offset="0.5" stop-color="#00E5FF" stop-opacity="0.10"/>
    <stop offset="1" stop-color="#00E5FF" stop-opacity="0"/></linearGradient>
  <filter id="ag" x="-60%" y="-260%" width="220%" height="620%">
    <feGaussianBlur stdDeviation="2.2" result="b"/>
    <feMerge><feMergeNode in="b"/><feMergeNode in="SourceGraphic"/></feMerge></filter>
  <clipPath id="aclip"><rect width="960" height="404" rx="14"/></clipPath>
</defs>
<g clip-path="url(#aclip)">
  <rect width="960" height="404" fill="url(#abg)"/>
  <g stroke="#12203A" stroke-width="1" opacity="0.28">
    <line x1="0" y1="0" x2="0" y2="404"/><line x1="30" y1="0" x2="30" y2="404"/><line x1="60" y1="0" x2="60" y2="404"/><line x1="90" y1="0" x2="90" y2="404"/><line x1="120" y1="0" x2="120" y2="404"/><line x1="150" y1="0" x2="150" y2="404"/><line x1="180" y1="0" x2="180" y2="404"/><line x1="210" y1="0" x2="210" y2="404"/><line x1="240" y1="0" x2="240" y2="404"/><line x1="270" y1="0" x2="270" y2="404"/><line x1="300" y1="0" x2="300" y2="404"/><line x1="330" y1="0" x2="330" y2="404"/><line x1="360" y1="0" x2="360" y2="404"/><line x1="390" y1="0" x2="390" y2="404"/><line x1="420" y1="0" x2="420" y2="404"/><line x1="450" y1="0" x2="450" y2="404"/><line x1="480" y1="0" x2="480" y2="404"/><line x1="510" y1="0" x2="510" y2="404"/><line x1="540" y1="0" x2="540" y2="404"/><line x1="570" y1="0" x2="570" y2="404"/><line x1="600" y1="0" x2="600" y2="404"/><line x1="630" y1="0" x2="630" y2="404"/><line x1="660" y1="0" x2="660" y2="404"/><line x1="690" y1="0" x2="690" y2="404"/><line x1="720" y1="0" x2="720" y2="404"/><line x1="750" y1="0" x2="750" y2="404"/><line x1="780" y1="0" x2="780" y2="404"/><line x1="810" y1="0" x2="810" y2="404"/><line x1="840" y1="0" x2="840" y2="404"/><line x1="870" y1="0" x2="870" y2="404"/><line x1="900" y1="0" x2="900" y2="404"/><line x1="930" y1="0" x2="930" y2="404"/>
    <line x1="0" y1="0" x2="960" y2="0"/><line x1="0" y1="30" x2="960" y2="30"/><line x1="0" y1="60" x2="960" y2="60"/><line x1="0" y1="90" x2="960" y2="90"/><line x1="0" y1="120" x2="960" y2="120"/><line x1="0" y1="150" x2="960" y2="150"/><line x1="0" y1="180" x2="960" y2="180"/><line x1="0" y1="210" x2="960" y2="210"/><line x1="0" y1="240" x2="960" y2="240"/><line x1="0" y1="270" x2="960" y2="270"/><line x1="0" y1="300" x2="960" y2="300"/><line x1="0" y1="330" x2="960" y2="330"/><line x1="0" y1="360" x2="960" y2="360"/><line x1="0" y1="390" x2="960" y2="390"/>
  </g>
  <rect x="0" y="0" width="960" height="50" fill="#0B111D"/>
  <rect x="0" y="49" width="960" height="1.6" fill="url(#abar)" opacity="0.85"/>
  <text x="26" y="32" font-size="13.5" fill="#00FF9C" xml:space="preserve">$ <tspan fill="#EAFBFF">apt list --installed | grep -i offensive</tspan></text>
  <text x="934" y="32" font-size="10.5" fill="#5B7A9E" text-anchor="end" letter-spacing="2">
    8 TOOLS · 5 LANGUAGES</text>
  <g><rect x="26.0" y="84" width="215.0" height="104" rx="11" fill="#080D18" fill-opacity="0.9" stroke="#12203A" stroke-width="1.5"/><rect x="26.0" y="84" width="4" height="104" rx="2" fill="#00E5FF" opacity="0.9"><animate attributeName="opacity" values="0.35;1;0.35" dur="2.2s" repeatCount="indefinite"/></rect><path d="M44.0,116 L52.0,102 L60.0,116 L52.0,111 Z" fill="none" stroke="#00E5FF" stroke-width="1.6"/><circle cx="52.0" cy="115" r="1.8" fill="#00E5FF"/><circle cx="225.0" cy="104" r="3.4" fill="#00E5FF"><animate attributeName="opacity" values="1;0.15;1" dur="1.1s" repeatCount="indefinite"/></circle><text x="72.0" y="111" font-size="13" fill="#C8E6FF" letter-spacing="1.1">KALI LINUX</text><text x="72.0" y="128" font-size="9.6" fill="#5B7A9E" letter-spacing="1">distro · recon</text><rect x="40.0" y="168" width="6.30" height="6" rx="1.5" fill="#12203A"/><rect x="48.5" y="168" width="6.30" height="6" rx="1.5" fill="#12203A"/><rect x="57.0" y="168" width="6.30" height="6" rx="1.5" fill="#12203A"/><rect x="65.5" y="168" width="6.30" height="6" rx="1.5" fill="#12203A"/><rect x="74.0" y="168" width="6.30" height="6" rx="1.5" fill="#12203A"/><rect x="82.5" y="168" width="6.30" height="6" rx="1.5" fill="#12203A"/><rect x="91.0" y="168" width="6.30" height="6" rx="1.5" fill="#12203A"/><rect x="99.5" y="168" width="6.30" height="6" rx="1.5" fill="#12203A"/><rect x="108.0" y="168" width="6.30" height="6" rx="1.5" fill="#12203A"/><rect x="116.5" y="168" width="6.30" height="6" rx="1.5" fill="#12203A"/><rect x="125.0" y="168" width="6.30" height="6" rx="1.5" fill="#12203A"/><rect x="133.5" y="168" width="6.30" height="6" rx="1.5" fill="#12203A"/><rect x="142.0" y="168" width="6.30" height="6" rx="1.5" fill="#12203A"/><rect x="150.5" y="168" width="6.30" height="6" rx="1.5" fill="#12203A"/><rect x="159.0" y="168" width="6.30" height="6" rx="1.5" fill="#12203A"/><rect x="167.5" y="168" width="6.30" height="6" rx="1.5" fill="#12203A"/><rect x="176.0" y="168" width="6.30" height="6" rx="1.5" fill="#12203A"/><rect x="184.5" y="168" width="6.30" height="6" rx="1.5" fill="#12203A"/><rect x="193.0" y="168" width="6.30" height="6" rx="1.5" fill="#12203A"/><rect x="201.5" y="168" width="6.30" height="6" rx="1.5" fill="#12203A"/><rect x="210.0" y="168" width="6.30" height="6" rx="1.5" fill="#12203A"/><rect x="218.5" y="168" width="6.30" height="6" rx="1.5" fill="#12203A"/><rect x="40.0" y="168" width="177.7" height="6" rx="3" fill="#00E5FF" filter="url(#ag)"><animate attributeName="width" values="0;177.7;177.7" keyTimes="0;0.32;1" dur="5.9s" repeatCount="indefinite"/></rect><text x="227.0" y="162" font-size="9.4" fill="#00E5FF" text-anchor="end" letter-spacing="1">95%</text></g><g><rect x="257.0" y="84" width="215.0" height="104" rx="11" fill="#080D18" fill-opacity="0.9" stroke="#12203A" stroke-width="1.5"/><rect x="257.0" y="84" width="4" height="104" rx="2" fill="#00FF9C" opacity="0.9"><animate attributeName="opacity" values="0.35;1;0.35" dur="2.5s" repeatCount="indefinite"/></rect><circle cx="283.0" cy="110" r="8.2" fill="none" stroke="#00FF9C" stroke-width="1.5"/><line x1="283.0" y1="110" x2="291.0" y2="110" stroke="#00FF9C" stroke-width="1.5"><animateTransform attributeName="transform" type="rotate" from="0 283.0 110" to="360 283.0 110" dur="3s" repeatCount="indefinite"/></line><circle cx="456.0" cy="104" r="3.4" fill="#00FF9C"><animate attributeName="opacity" values="1;0.15;1" dur="1.3s" repeatCount="indefinite"/></circle><text x="303.0" y="111" font-size="13" fill="#C8E6FF" letter-spacing="1.1">NMAP</text><text x="303.0" y="128" font-size="9.6" fill="#5B7A9E" letter-spacing="1">network · discovery</text><rect x="271.0" y="168" width="6.30" height="6" rx="1.5" fill="#12203A"/><rect x="279.5" y="168" width="6.30" height="6" rx="1.5" fill="#12203A"/><rect x="288.0" y="168" width="6.30" height="6" rx="1.5" fill="#12203A"/><rect x="296.5" y="168" width="6.30" height="6" rx="1.5" fill="#12203A"/><rect x="305.0" y="168" width="6.30" height="6" rx="1.5" fill="#12203A"/><rect x="313.5" y="168" width="6.30" height="6" rx="1.5" fill="#12203A"/><rect x="322.0" y="168" width="6.30" height="6" rx="1.5" fill="#12203A"/><rect x="330.5" y="168" width="6.30" height="6" rx="1.5" fill="#12203A"/><rect x="339.0" y="168" width="6.30" height="6" rx="1.5" fill="#12203A"/><rect x="347.5" y="168" width="6.30" height="6" rx="1.5" fill="#12203A"/><rect x="356.0" y="168" width="6.30" height="6" rx="1.5" fill="#12203A"/><rect x="364.5" y="168" width="6.30" height="6" rx="1.5" fill="#12203A"/><rect x="373.0" y="168" width="6.30" height="6" rx="1.5" fill="#12203A"/><rect x="381.5" y="168" width="6.30" height="6" rx="1.5" fill="#12203A"/><rect x="390.0" y="168" width="6.30" height="6" rx="1.5" fill="#12203A"/><rect x="398.5" y="168" width="6.30" height="6" rx="1.5" fill="#12203A"/><rect x="407.0" y="168" width="6.30" height="6" rx="1.5" fill="#12203A"/><rect x="415.5" y="168" width="6.30" height="6" rx="1.5" fill="#12203A"/><rect x="424.0" y="168" width="6.30" height="6" rx="1.5" fill="#12203A"/><rect x="432.5" y="168" width="6.30" height="6" rx="1.5" fill="#12203A"/><rect x="441.0" y="168" width="6.30" height="6" rx="1.5" fill="#12203A"/><rect x="449.5" y="168" width="6.30" height="6" rx="1.5" fill="#12203A"/><rect x="271.0" y="168" width="168.3" height="6" rx="3" fill="#00FF9C" filter="url(#ag)"><animate attributeName="width" values="0;168.3;168.3" keyTimes="0;0.32;1" dur="6.0600000000000005s" repeatCount="indefinite"/></rect><text x="458.0" y="162" font-size="9.4" fill="#00FF9C" text-anchor="end" letter-spacing="1">90%</text></g><g><rect x="488.0" y="84" width="215.0" height="104" rx="11" fill="#080D18" fill-opacity="0.9" stroke="#12203A" stroke-width="1.5"/><rect x="488.0" y="84" width="4" height="104" rx="2" fill="#FFC400" opacity="0.9"><animate attributeName="opacity" values="0.35;1;0.35" dur="2.8000000000000003s" repeatCount="indefinite"/></rect><circle cx="514.0" cy="111" r="5.4" fill="none" stroke="#FFC400" stroke-width="1.5"/><line x1="514.0" y1="102" x2="514.0" y2="106" stroke="#FFC400" stroke-width="1.4"/><line x1="506.0" y1="108" x2="509.0" y2="111" stroke="#FFC400" stroke-width="1.4"/><line x1="522.0" y1="108" x2="519.0" y2="111" stroke="#FFC400" stroke-width="1.4"/><line x1="507.0" y1="117" x2="510.0" y2="114" stroke="#FFC400" stroke-width="1.4"/><line x1="521.0" y1="117" x2="518.0" y2="114" stroke="#FFC400" stroke-width="1.4"/><circle cx="687.0" cy="104" r="3.4" fill="#FFC400"><animate attributeName="opacity" values="1;0.15;1" dur="1.5s" repeatCount="indefinite"/></circle><text x="534.0" y="111" font-size="13" fill="#C8E6FF" letter-spacing="1.1">BURP SUITE</text><text x="534.0" y="128" font-size="9.6" fill="#5B7A9E" letter-spacing="1">web · proxy</text><rect x="502.0" y="168" width="6.30" height="6" rx="1.5" fill="#12203A"/><rect x="510.5" y="168" width="6.30" height="6" rx="1.5" fill="#12203A"/><rect x="519.0" y="168" width="6.30" height="6" rx="1.5" fill="#12203A"/><rect x="527.5" y="168" width="6.30" height="6" rx="1.5" fill="#12203A"/><rect x="536.0" y="168" width="6.30" height="6" rx="1.5" fill="#12203A"/><rect x="544.5" y="168" width="6.30" height="6" rx="1.5" fill="#12203A"/><rect x="553.0" y="168" width="6.30" height="6" rx="1.5" fill="#12203A"/><rect x="561.5" y="168" width="6.30" height="6" rx="1.5" fill="#12203A"/><rect x="570.0" y="168" width="6.30" height="6" rx="1.5" fill="#12203A"/><rect x="578.5" y="168" width="6.30" height="6" rx="1.5" fill="#12203A"/><rect x="587.0" y="168" width="6.30" height="6" rx="1.5" fill="#12203A"/><rect x="595.5" y="168" width="6.30" height="6" rx="1.5" fill="#12203A"/><rect x="604.0" y="168" width="6.30" height="6" rx="1.5" fill="#12203A"/><rect x="612.5" y="168" width="6.30" height="6" rx="1.5" fill="#12203A"/><rect x="621.0" y="168" width="6.30" height="6" rx="1.5" fill="#12203A"/><rect x="629.5" y="168" width="6.30" height="6" rx="1.5" fill="#12203A"/><rect x="638.0" y="168" width="6.30" height="6" rx="1.5" fill="#12203A"/><rect x="646.5" y="168" width="6.30" height="6" rx="1.5" fill="#12203A"/><rect x="655.0" y="168" width="6.30" height="6" rx="1.5" fill="#12203A"/><rect x="663.5" y="168" width="6.30" height="6" rx="1.5" fill="#12203A"/><rect x="672.0" y="168" width="6.30" height="6" rx="1.5" fill="#12203A"/><rect x="680.5" y="168" width="6.30" height="6" rx="1.5" fill="#12203A"/><rect x="502.0" y="168" width="153.3" height="6" rx="3" fill="#FFC400" filter="url(#ag)"><animate attributeName="width" values="0;153.3;153.3" keyTimes="0;0.32;1" dur="6.22s" repeatCount="indefinite"/></rect><text x="689.0" y="162" font-size="9.4" fill="#FFC400" text-anchor="end" letter-spacing="1">82%</text></g><g><rect x="719.0" y="84" width="215.0" height="104" rx="11" fill="#080D18" fill-opacity="0.9" stroke="#12203A" stroke-width="1.5"/><rect x="719.0" y="84" width="4" height="104" rx="2" fill="#FF3860" opacity="0.9"><animate attributeName="opacity" values="0.35;1;0.35" dur="3.1s" repeatCount="indefinite"/></rect><line x1="745.0" y1="110" x2="745.0" y2="102" stroke="#FF3860" stroke-width="1.5"/><line x1="745.0" y1="110" x2="753.0" y2="110" stroke="#FF3860" stroke-width="1.5"/><line x1="745.0" y1="110" x2="745.0" y2="118" stroke="#FF3860" stroke-width="1.5"/><line x1="745.0" y1="110" x2="737.0" y2="110" stroke="#FF3860" stroke-width="1.5"/><line x1="745.0" y1="110" x2="751.0" y2="104" stroke="#FF3860" stroke-width="1.5"/><line x1="745.0" y1="110" x2="751.0" y2="116" stroke="#FF3860" stroke-width="1.5"/><line x1="745.0" y1="110" x2="739.0" y2="116" stroke="#FF3860" stroke-width="1.5"/><line x1="745.0" y1="110" x2="739.0" y2="104" stroke="#FF3860" stroke-width="1.5"/><circle cx="745.0" cy="110" r="2.6" fill="#FF3860"><animate attributeName="r" values="2;3.6;2" dur="1.4s" repeatCount="indefinite"/></circle><circle cx="918.0" cy="104" r="3.4" fill="#FF3860"><animate attributeName="opacity" values="1;0.15;1" dur="1.7000000000000002s" repeatCount="indefinite"/></circle><text x="765.0" y="111" font-size="13" fill="#C8E6FF" letter-spacing="1.1">METASPLOIT</text><text x="765.0" y="128" font-size="9.6" fill="#5B7A9E" letter-spacing="1">exploitation</text><rect x="733.0" y="168" width="6.30" height="6" rx="1.5" fill="#12203A"/><rect x="741.5" y="168" width="6.30" height="6" rx="1.5" fill="#12203A"/><rect x="750.0" y="168" width="6.30" height="6" rx="1.5" fill="#12203A"/><rect x="758.5" y="168" width="6.30" height="6" rx="1.5" fill="#12203A"/><rect x="767.0" y="168" width="6.30" height="6" rx="1.5" fill="#12203A"/><rect x="775.5" y="168" width="6.30" height="6" rx="1.5" fill="#12203A"/><rect x="784.0" y="168" width="6.30" height="6" rx="1.5" fill="#12203A"/><rect x="792.5" y="168" width="6.30" height="6" rx="1.5" fill="#12203A"/><rect x="801.0" y="168" width="6.30" height="6" rx="1.5" fill="#12203A"/><rect x="809.5" y="168" width="6.30" height="6" rx="1.5" fill="#12203A"/><rect x="818.0" y="168" width="6.30" height="6" rx="1.5" fill="#12203A"/><rect x="826.5" y="168" width="6.30" height="6" rx="1.5" fill="#12203A"/><rect x="835.0" y="168" width="6.30" height="6" rx="1.5" fill="#12203A"/><rect x="843.5" y="168" width="6.30" height="6" rx="1.5" fill="#12203A"/><rect x="852.0" y="168" width="6.30" height="6" rx="1.5" fill="#12203A"/><rect x="860.5" y="168" width="6.30" height="6" rx="1.5" fill="#12203A"/><rect x="869.0" y="168" width="6.30" height="6" rx="1.5" fill="#12203A"/><rect x="877.5" y="168" width="6.30" height="6" rx="1.5" fill="#12203A"/><rect x="886.0" y="168" width="6.30" height="6" rx="1.5" fill="#12203A"/><rect x="894.5" y="168" width="6.30" height="6" rx="1.5" fill="#12203A"/><rect x="903.0" y="168" width="6.30" height="6" rx="1.5" fill="#12203A"/><rect x="911.5" y="168" width="6.30" height="6" rx="1.5" fill="#12203A"/><rect x="733.0" y="168" width="142.1" height="6" rx="3" fill="#FF3860" filter="url(#ag)"><animate attributeName="width" values="0;142.1;142.1" keyTimes="0;0.32;1" dur="6.38s" repeatCount="indefinite"/></rect><text x="920.0" y="162" font-size="9.4" fill="#FF3860" text-anchor="end" letter-spacing="1">76%</text></g><g><rect x="26.0" y="204" width="215.0" height="104" rx="11" fill="#080D18" fill-opacity="0.9" stroke="#12203A" stroke-width="1.5"/><rect x="26.0" y="204" width="4" height="104" rx="2" fill="#7C4DFF" opacity="0.9"><animate attributeName="opacity" values="0.35;1;0.35" dur="3.4000000000000004s" repeatCount="indefinite"/></rect><polyline points="43.0,230 46.0,230 48.0,223 51.0,237 54.0,227 57.0,233 61.0,230" fill="none" stroke="#7C4DFF" stroke-width="1.6" stroke-linejoin="round"/><circle cx="225.0" cy="224" r="3.4" fill="#7C4DFF"><animate attributeName="opacity" values="1;0.15;1" dur="1.9000000000000001s" repeatCount="indefinite"/></circle><text x="72.0" y="231" font-size="13" fill="#C8E6FF" letter-spacing="1.1">WIRESHARK</text><text x="72.0" y="248" font-size="9.6" fill="#5B7A9E" letter-spacing="1">traffic · pcap</text><rect x="40.0" y="288" width="6.30" height="6" rx="1.5" fill="#12203A"/><rect x="48.5" y="288" width="6.30" height="6" rx="1.5" fill="#12203A"/><rect x="57.0" y="288" width="6.30" height="6" rx="1.5" fill="#12203A"/><rect x="65.5" y="288" width="6.30" height="6" rx="1.5" fill="#12203A"/><rect x="74.0" y="288" width="6.30" height="6" rx="1.5" fill="#12203A"/><rect x="82.5" y="288" width="6.30" height="6" rx="1.5" fill="#12203A"/><rect x="91.0" y="288" width="6.30" height="6" rx="1.5" fill="#12203A"/><rect x="99.5" y="288" width="6.30" height="6" rx="1.5" fill="#12203A"/><rect x="108.0" y="288" width="6.30" height="6" rx="1.5" fill="#12203A"/><rect x="116.5" y="288" width="6.30" height="6" rx="1.5" fill="#12203A"/><rect x="125.0" y="288" width="6.30" height="6" rx="1.5" fill="#12203A"/><rect x="133.5" y="288" width="6.30" height="6" rx="1.5" fill="#12203A"/><rect x="142.0" y="288" width="6.30" height="6" rx="1.5" fill="#12203A"/><rect x="150.5" y="288" width="6.30" height="6" rx="1.5" fill="#12203A"/><rect x="159.0" y="288" width="6.30" height="6" rx="1.5" fill="#12203A"/><rect x="167.5" y="288" width="6.30" height="6" rx="1.5" fill="#12203A"/><rect x="176.0" y="288" width="6.30" height="6" rx="1.5" fill="#12203A"/><rect x="184.5" y="288" width="6.30" height="6" rx="1.5" fill="#12203A"/><rect x="193.0" y="288" width="6.30" height="6" rx="1.5" fill="#12203A"/><rect x="201.5" y="288" width="6.30" height="6" rx="1.5" fill="#12203A"/><rect x="210.0" y="288" width="6.30" height="6" rx="1.5" fill="#12203A"/><rect x="218.5" y="288" width="6.30" height="6" rx="1.5" fill="#12203A"/><rect x="40.0" y="288" width="157.1" height="6" rx="3" fill="#7C4DFF" filter="url(#ag)"><animate attributeName="width" values="0;157.1;157.1" keyTimes="0;0.32;1" dur="6.54s" repeatCount="indefinite"/></rect><text x="227.0" y="282" font-size="9.4" fill="#7C4DFF" text-anchor="end" letter-spacing="1">84%</text></g><g><rect x="257.0" y="204" width="215.0" height="104" rx="11" fill="#080D18" fill-opacity="0.9" stroke="#12203A" stroke-width="1.5"/><rect x="257.0" y="204" width="4" height="104" rx="2" fill="#FF2EC4" opacity="0.9"><animate attributeName="opacity" values="0.35;1;0.35" dur="3.7s" repeatCount="indefinite"/></rect><rect x="276.0" y="223" width="14" height="14" rx="2" fill="none" stroke="#FF2EC4" stroke-width="1.5"/><line x1="279.0" y1="222" x2="279.0" y2="219" stroke="#FF2EC4" stroke-width="1.3"/><line x1="279.0" y1="238" x2="279.0" y2="241" stroke="#FF2EC4" stroke-width="1.3"/><line x1="283.0" y1="222" x2="283.0" y2="219" stroke="#FF2EC4" stroke-width="1.3"/><line x1="283.0" y1="238" x2="283.0" y2="241" stroke="#FF2EC4" stroke-width="1.3"/><line x1="287.0" y1="222" x2="287.0" y2="219" stroke="#FF2EC4" stroke-width="1.3"/><line x1="287.0" y1="238" x2="287.0" y2="241" stroke="#FF2EC4" stroke-width="1.3"/><circle cx="456.0" cy="224" r="3.4" fill="#FF2EC4"><animate attributeName="opacity" values="1;0.15;1" dur="2.1s" repeatCount="indefinite"/></circle><text x="303.0" y="231" font-size="13" fill="#C8E6FF" letter-spacing="1.1">GHIDRA</text><text x="303.0" y="248" font-size="9.6" fill="#5B7A9E" letter-spacing="1">reverse · static</text><rect x="271.0" y="288" width="6.30" height="6" rx="1.5" fill="#12203A"/><rect x="279.5" y="288" width="6.30" height="6" rx="1.5" fill="#12203A"/><rect x="288.0" y="288" width="6.30" height="6" rx="1.5" fill="#12203A"/><rect x="296.5" y="288" width="6.30" height="6" rx="1.5" fill="#12203A"/><rect x="305.0" y="288" width="6.30" height="6" rx="1.5" fill="#12203A"/><rect x="313.5" y="288" width="6.30" height="6" rx="1.5" fill="#12203A"/><rect x="322.0" y="288" width="6.30" height="6" rx="1.5" fill="#12203A"/><rect x="330.5" y="288" width="6.30" height="6" rx="1.5" fill="#12203A"/><rect x="339.0" y="288" width="6.30" height="6" rx="1.5" fill="#12203A"/><rect x="347.5" y="288" width="6.30" height="6" rx="1.5" fill="#12203A"/><rect x="356.0" y="288" width="6.30" height="6" rx="1.5" fill="#12203A"/><rect x="364.5" y="288" width="6.30" height="6" rx="1.5" fill="#12203A"/><rect x="373.0" y="288" width="6.30" height="6" rx="1.5" fill="#12203A"/><rect x="381.5" y="288" width="6.30" height="6" rx="1.5" fill="#12203A"/><rect x="390.0" y="288" width="6.30" height="6" rx="1.5" fill="#12203A"/><rect x="398.5" y="288" width="6.30" height="6" rx="1.5" fill="#12203A"/><rect x="407.0" y="288" width="6.30" height="6" rx="1.5" fill="#12203A"/><rect x="415.5" y="288" width="6.30" height="6" rx="1.5" fill="#12203A"/><rect x="424.0" y="288" width="6.30" height="6" rx="1.5" fill="#12203A"/><rect x="432.5" y="288" width="6.30" height="6" rx="1.5" fill="#12203A"/><rect x="441.0" y="288" width="6.30" height="6" rx="1.5" fill="#12203A"/><rect x="449.5" y="288" width="6.30" height="6" rx="1.5" fill="#12203A"/><rect x="271.0" y="288" width="127.2" height="6" rx="3" fill="#FF2EC4" filter="url(#ag)"><animate attributeName="width" values="0;127.2;127.2" keyTimes="0;0.32;1" dur="6.7s" repeatCount="indefinite"/></rect><text x="458.0" y="282" font-size="9.4" fill="#FF2EC4" text-anchor="end" letter-spacing="1">68%</text></g><g><rect x="488.0" y="204" width="215.0" height="104" rx="11" fill="#080D18" fill-opacity="0.9" stroke="#12203A" stroke-width="1.5"/><rect x="488.0" y="204" width="4" height="104" rx="2" fill="#FFC400" opacity="0.9"><animate attributeName="opacity" values="0.35;1;0.35" dur="4.0s" repeatCount="indefinite"/></rect><circle cx="510.0" cy="230" r="4.4" fill="none" stroke="#FFC400" stroke-width="1.6"/><line x1="514.0" y1="230" x2="523.0" y2="230" stroke="#FFC400" stroke-width="1.6"/><line x1="519.0" y1="230" x2="519.0" y2="235" stroke="#FFC400" stroke-width="1.6"/><circle cx="687.0" cy="224" r="3.4" fill="#FFC400"><animate attributeName="opacity" values="1;0.15;1" dur="2.3000000000000003s" repeatCount="indefinite"/></circle><text x="534.0" y="231" font-size="13" fill="#C8E6FF" letter-spacing="1.1">HYDRA</text><text x="534.0" y="248" font-size="9.6" fill="#5B7A9E" letter-spacing="1">auth · brute</text><rect x="502.0" y="288" width="6.30" height="6" rx="1.5" fill="#12203A"/><rect x="510.5" y="288" width="6.30" height="6" rx="1.5" fill="#12203A"/><rect x="519.0" y="288" width="6.30" height="6" rx="1.5" fill="#12203A"/><rect x="527.5" y="288" width="6.30" height="6" rx="1.5" fill="#12203A"/><rect x="536.0" y="288" width="6.30" height="6" rx="1.5" fill="#12203A"/><rect x="544.5" y="288" width="6.30" height="6" rx="1.5" fill="#12203A"/><rect x="553.0" y="288" width="6.30" height="6" rx="1.5" fill="#12203A"/><rect x="561.5" y="288" width="6.30" height="6" rx="1.5" fill="#12203A"/><rect x="570.0" y="288" width="6.30" height="6" rx="1.5" fill="#12203A"/><rect x="578.5" y="288" width="6.30" height="6" rx="1.5" fill="#12203A"/><rect x="587.0" y="288" width="6.30" height="6" rx="1.5" fill="#12203A"/><rect x="595.5" y="288" width="6.30" height="6" rx="1.5" fill="#12203A"/><rect x="604.0" y="288" width="6.30" height="6" rx="1.5" fill="#12203A"/><rect x="612.5" y="288" width="6.30" height="6" rx="1.5" fill="#12203A"/><rect x="621.0" y="288" width="6.30" height="6" rx="1.5" fill="#12203A"/><rect x="629.5" y="288" width="6.30" height="6" rx="1.5" fill="#12203A"/><rect x="638.0" y="288" width="6.30" height="6" rx="1.5" fill="#12203A"/><rect x="646.5" y="288" width="6.30" height="6" rx="1.5" fill="#12203A"/><rect x="655.0" y="288" width="6.30" height="6" rx="1.5" fill="#12203A"/><rect x="663.5" y="288" width="6.30" height="6" rx="1.5" fill="#12203A"/><rect x="672.0" y="288" width="6.30" height="6" rx="1.5" fill="#12203A"/><rect x="680.5" y="288" width="6.30" height="6" rx="1.5" fill="#12203A"/><rect x="502.0" y="288" width="134.6" height="6" rx="3" fill="#FFC400" filter="url(#ag)"><animate attributeName="width" values="0;134.6;134.6" keyTimes="0;0.32;1" dur="6.86s" repeatCount="indefinite"/></rect><text x="689.0" y="282" font-size="9.4" fill="#FFC400" text-anchor="end" letter-spacing="1">72%</text></g><g><rect x="719.0" y="204" width="215.0" height="104" rx="11" fill="#080D18" fill-opacity="0.9" stroke="#12203A" stroke-width="1.5"/><rect x="719.0" y="204" width="4" height="104" rx="2" fill="#00FF9C" opacity="0.9"><animate attributeName="opacity" values="0.35;1;0.35" dur="4.300000000000001s" repeatCount="indefinite"/></rect><circle cx="745.0" cy="230" r="8.4" fill="none" stroke="#00FF9C" stroke-width="1.3" opacity="1"/><circle cx="745.0" cy="230" r="5.6" fill="none" stroke="#00FF9C" stroke-width="1.3" opacity="0.8"/><circle cx="745.0" cy="230" r="2.8" fill="none" stroke="#00FF9C" stroke-width="1.3" opacity="0.6"/><circle cx="918.0" cy="224" r="3.4" fill="#00FF9C"><animate attributeName="opacity" values="1;0.15;1" dur="2.5s" repeatCount="indefinite"/></circle><text x="765.0" y="231" font-size="13" fill="#C8E6FF" letter-spacing="1.1">TAILS OS</text><text x="765.0" y="248" font-size="9.6" fill="#5B7A9E" letter-spacing="1">opsec · amnesic</text><rect x="733.0" y="288" width="6.30" height="6" rx="1.5" fill="#12203A"/><rect x="741.5" y="288" width="6.30" height="6" rx="1.5" fill="#12203A"/><rect x="750.0" y="288" width="6.30" height="6" rx="1.5" fill="#12203A"/><rect x="758.5" y="288" width="6.30" height="6" rx="1.5" fill="#12203A"/><rect x="767.0" y="288" width="6.30" height="6" rx="1.5" fill="#12203A"/><rect x="775.5" y="288" width="6.30" height="6" rx="1.5" fill="#12203A"/><rect x="784.0" y="288" width="6.30" height="6" rx="1.5" fill="#12203A"/><rect x="792.5" y="288" width="6.30" height="6" rx="1.5" fill="#12203A"/><rect x="801.0" y="288" width="6.30" height="6" rx="1.5" fill="#12203A"/><rect x="809.5" y="288" width="6.30" height="6" rx="1.5" fill="#12203A"/><rect x="818.0" y="288" width="6.30" height="6" rx="1.5" fill="#12203A"/><rect x="826.5" y="288" width="6.30" height="6" rx="1.5" fill="#12203A"/><rect x="835.0" y="288" width="6.30" height="6" rx="1.5" fill="#12203A"/><rect x="843.5" y="288" width="6.30" height="6" rx="1.5" fill="#12203A"/><rect x="852.0" y="288" width="6.30" height="6" rx="1.5" fill="#12203A"/><rect x="860.5" y="288" width="6.30" height="6" rx="1.5" fill="#12203A"/><rect x="869.0" y="288" width="6.30" height="6" rx="1.5" fill="#12203A"/><rect x="877.5" y="288" width="6.30" height="6" rx="1.5" fill="#12203A"/><rect x="886.0" y="288" width="6.30" height="6" rx="1.5" fill="#12203A"/><rect x="894.5" y="288" width="6.30" height="6" rx="1.5" fill="#12203A"/><rect x="903.0" y="288" width="6.30" height="6" rx="1.5" fill="#12203A"/><rect x="911.5" y="288" width="6.30" height="6" rx="1.5" fill="#12203A"/><rect x="733.0" y="288" width="164.6" height="6" rx="3" fill="#00FF9C" filter="url(#ag)"><animate attributeName="width" values="0;164.6;164.6" keyTimes="0;0.32;1" dur="7.02s" repeatCount="indefinite"/></rect><text x="920.0" y="282" font-size="9.4" fill="#00FF9C" text-anchor="end" letter-spacing="1">88%</text></g>
  <line x1="26" y1="326" x2="934" y2="326" stroke="#12203A" stroke-width="1"/>
  <g><text x="26.0" y="350" font-size="10.4" fill="#5B7A9E" letter-spacing="1.6">RUST</text><rect x="26.0" y="360" width="170.4" height="8" rx="4" fill="#0C1420"/><rect x="26.0" y="360" width="146.5" height="8" rx="4" fill="#FF2EC4" filter="url(#ag)"><animate attributeName="width" values="0;146.5;146.5" keyTimes="0;0.3;1" dur="6.0s" repeatCount="indefinite"/></rect><rect x="26.0" y="360" width="16" height="8" rx="4" fill="#EAFBFF" opacity="0.5"><animate attributeName="x" values="26.0;156.5;26.0" dur="3.4s" repeatCount="indefinite"/></rect></g><g><text x="210.4" y="350" font-size="10.4" fill="#5B7A9E" letter-spacing="1.6">PYTHON</text><rect x="210.4" y="360" width="170.4" height="8" rx="4" fill="#0C1420"/><rect x="210.4" y="360" width="153.4" height="8" rx="4" fill="#00FF9C" filter="url(#ag)"><animate attributeName="width" values="0;153.4;153.4" keyTimes="0;0.3;1" dur="6.4s" repeatCount="indefinite"/></rect><rect x="210.4" y="360" width="16" height="8" rx="4" fill="#EAFBFF" opacity="0.5"><animate attributeName="x" values="210.4;347.8;210.4" dur="3.9s" repeatCount="indefinite"/></rect></g><g><text x="394.8" y="350" font-size="10.4" fill="#5B7A9E" letter-spacing="1.6">JAVASCRIPT</text><rect x="394.8" y="360" width="170.4" height="8" rx="4" fill="#0C1420"/><rect x="394.8" y="360" width="126.1" height="8" rx="4" fill="#FFC400" filter="url(#ag)"><animate attributeName="width" values="0;126.1;126.1" keyTimes="0;0.3;1" dur="6.8s" repeatCount="indefinite"/></rect><rect x="394.8" y="360" width="16" height="8" rx="4" fill="#EAFBFF" opacity="0.5"><animate attributeName="x" values="394.8;504.9;394.8" dur="4.4s" repeatCount="indefinite"/></rect></g><g><text x="579.2" y="350" font-size="10.4" fill="#5B7A9E" letter-spacing="1.6">SQL</text><rect x="579.2" y="360" width="170.4" height="8" rx="4" fill="#0C1420"/><rect x="579.2" y="360" width="119.3" height="8" rx="4" fill="#00E5FF" filter="url(#ag)"><animate attributeName="width" values="0;119.3;119.3" keyTimes="0;0.3;1" dur="7.2s" repeatCount="indefinite"/></rect><rect x="579.2" y="360" width="16" height="8" rx="4" fill="#EAFBFF" opacity="0.5"><animate attributeName="x" values="579.2;682.5;579.2" dur="4.9s" repeatCount="indefinite"/></rect></g><g><text x="763.6" y="350" font-size="10.4" fill="#5B7A9E" letter-spacing="1.6">BASH</text><rect x="763.6" y="360" width="170.4" height="8" rx="4" fill="#0C1420"/><rect x="763.6" y="360" width="136.3" height="8" rx="4" fill="#7C4DFF" filter="url(#ag)"><animate attributeName="width" values="0;136.3;136.3" keyTimes="0;0.3;1" dur="7.6s" repeatCount="indefinite"/></rect><rect x="763.6" y="360" width="16" height="8" rx="4" fill="#EAFBFF" opacity="0.5"><animate attributeName="x" values="763.6;883.9000000000001;763.6" dur="5.4s" repeatCount="indefinite"/></rect></g>
  <g>
    <rect x="-140" y="50" width="140" height="354" fill="url(#ascan)"/>
    <animateTransform attributeName="transform" type="translate" values="0,0;1120,0"
      dur="9s" repeatCount="indefinite"/>
  </g>
  <rect width="960" height="404" rx="14" fill="none" stroke="#12203A" stroke-width="2"/>
</g>
</svg>
